HIERARCHY
ROOT Hip
{
	OFFSET 0 1.131 0.0052
	CHANNELS 6 Xposition Yposition Zposition Xrotation Yrotation Zrotation
	JOINT Abdomen
	{
		OFFSET 0 -0.047353 -0.05
		CHANNELS 3 Xrotation Zrotation Yrotation
		JOINT Chest
		{
			OFFSET 0 0.132153 0.007439
			CHANNELS 3 Xrotation Zrotation Yrotation
			JOINT Neck
			{
				OFFSET 0 0.3078 0.006161
				CHANNELS 3 Xrotation Zrotation Yrotation
				JOINT Head_comp
				{
					OFFSET 0 0.0884 0.013
					CHANNELS 3 Xrotation Yrotation Zrotation
					End Site
					{
						OFFSET -0 0.156 0.0624
					}
				}
			}
			JOINT Left_Collar
			{
				OFFSET 0.02282 0.250342 0.017193
				CHANNELS 2 Yrotation Zrotation
				JOINT Left_Shoulder
				{
					OFFSET 0.15421 0 0
					CHANNELS 3 Xrotation Yrotation Zrotation
					JOINT Left_Forearm
					{
						OFFSET 0.265212 0 0
						CHANNELS 2 Yrotation Xrotation
						JOINT Left_Hand
						{
							OFFSET 0.27571 0 0
							CHANNELS 2 Zrotation Yrotation
							JOINT L1ProxPhalanx
							{
								OFFSET 0.014142 0.001733 0.014142
								CHANNELS 3 Yrotation Zrotation Xrotation
								JOINT L1MidPhalanx
								{
									OFFSET 0.04 0 0
									CHANNELS 1 Zrotation
									JOINT L1DistPhalanx
									{
										OFFSET 0.035 0 0
										CHANNELS 1 Zrotation
										End Site
										{
											OFFSET 0.029 -0 -0
										}
									}
								}
							}
							JOINT L2ProxPhalanx
							{
								OFFSET 0.0821037 0.001578 0.0219996
								CHANNELS 2 Yrotation Zrotation
								JOINT L2MidPhalanx
								{
									OFFSET 0.04 0 0
									CHANNELS 1 Zrotation
									JOINT L2DistPhalanx
									{
										OFFSET 0.028 0 0
										CHANNELS 1 Zrotation
										End Site
										{
											OFFSET 0.02 -0 -0
										}
									}
								}
							}
							JOINT L3ProxPhalanx
							{
								OFFSET 0.083 0 0
								CHANNELS 2 Yrotation Zrotation
								JOINT L3MidPhalanx
								{
									OFFSET 0.053 0 0
									CHANNELS 1 Zrotation
									JOINT L3DistPhalanx
									{
										OFFSET 0.03 0 0
										CHANNELS 1 Zrotation
										End Site
										{
											OFFSET 0.023 -0 -0
										}
									}
								}
							}
							JOINT L4ProxPhalanx
							{
								OFFSET 0.077274 -0.000761 -0.0207055
								CHANNELS 2 Yrotation Zrotation
								JOINT L4MidPhalanx
								{
									OFFSET 0.05 0 0
									CHANNELS 1 Zrotation
									JOINT L4DistPhalanx
									{
										OFFSET 0.03 0 0
										CHANNELS 1 Zrotation
										End Site
										{
											OFFSET 0.023 -0 -0
										}
									}
								}
							}
							JOINT L5ProxPhalanx
							{
								OFFSET 0.0675499 -0.001644 -0.039
								CHANNELS 2 Yrotation Zrotation
								JOINT L5MidPhalanx
								{
									OFFSET 0.04 0 0
									CHANNELS 1 Zrotation
									JOINT L5DistPhalanx
									{
										OFFSET 0.021 0 0
										CHANNELS 1 Zrotation
										End Site
										{
											OFFSET 0.022 -0 -0
										}
									}
								}
							}
						}
					}
				}
			}
			JOINT Right_Collar
			{
				OFFSET -0.02282 0.250342 0.017193
				CHANNELS 2 Yrotation Zrotation
				JOINT Right_Shoulder
				{
					OFFSET -0.15421 0 0
					CHANNELS 3 Xrotation Yrotation Zrotation
					JOINT Right_Forearm
					{
						OFFSET -0.265212 0 0
						CHANNELS 2 Yrotation Xrotation
						JOINT Right_Hand
						{
							OFFSET -0.27571 3e-006 0
							CHANNELS 2 Zrotation Yrotation
							JOINT R1ProxPhalanx
							{
								OFFSET -0.014142 0.001733 0.014142
								CHANNELS 3 Yrotation Zrotation Xrotation
								JOINT R1MidPhalanx
								{
									OFFSET -0.04 0 0
									CHANNELS 1 Zrotation
									JOINT R1DistPhalanx
									{
										OFFSET -0.035 0 0
										CHANNELS 1 Zrotation
										End Site
										{
											OFFSET -0.029 -0 -0
										}
									}
								}
							}
							JOINT R2ProxPhalanx
							{
								OFFSET -0.0821037 0.001578 0.0219996
								CHANNELS 2 Yrotation Zrotation
								JOINT R2MidPhalanx
								{
									OFFSET -0.04 0 0
									CHANNELS 1 Zrotation
									JOINT R2DistPhalanx
									{
										OFFSET -0.028 0 0
										CHANNELS 1 Zrotation
										End Site
										{
											OFFSET -0.02 -0 -0
										}
									}
								}
							}
							JOINT R3ProxPhalanx
							{
								OFFSET -0.083 0 0
								CHANNELS 2 Yrotation Zrotation
								JOINT R3MidPhalanx
								{
									OFFSET -0.053 0 0
									CHANNELS 1 Zrotation
									JOINT R3DistPhalanx
									{
										OFFSET -0.03 0 0
										CHANNELS 1 Zrotation
										End Site
										{
											OFFSET -0.023 -0 -0
										}
									}
								}
							}
							JOINT R4ProxPhalanx
							{
								OFFSET -0.077274 -0.000761 -0.0207055
								CHANNELS 2 Yrotation Zrotation
								JOINT R4MidPhalanx
								{
									OFFSET -0.05 0 0
									CHANNELS 1 Zrotation
									JOINT R4DistPhalanx
									{
										OFFSET -0.03 0 0
										CHANNELS 1 Zrotation
										End Site
										{
											OFFSET -0.023 -0 -0
										}
									}
								}
							}
							JOINT R5ProxPhalanx
							{
								OFFSET -0.0675499 -0.001644 -0.039
								CHANNELS 2 Yrotation Zrotation
								JOINT R5MidPhalanx
								{
									OFFSET -0.04 0 0
									CHANNELS 1 Zrotation
									JOINT R5DistPhalanx
									{
										OFFSET -0.021 0 0
										CHANNELS 1 Zrotation
										End Site
										{
											OFFSET -0.022 -0 -0
										}
									}
								}
							}
						}
					}
				}
			}
		}
	}
	JOINT Left_Thigh
	{
		OFFSET 0.1118 -0.1612 -0.0442
		CHANNELS 3 Xrotation Zrotation Yrotation
		JOINT Left_Shin
		{
			OFFSET 0 -0.477856 0
			CHANNELS 1 Xrotation
			JOINT Left_Foot
			{
				OFFSET 0 -0.431952 0
				CHANNELS 2 Xrotation Zrotation
				JOINT Left_Toe
				{
					OFFSET 0 -0.0442 0.119
					CHANNELS 1 Xrotation
					End Site
					{
						OFFSET -0 -0 0.07
					}
				}
			}
		}
	}
	JOINT Right_Thigh
	{
		OFFSET -0.1118 -0.1612 -0.0442
		CHANNELS 3 Xrotation Zrotation Yrotation
		JOINT Right_Shin
		{
			OFFSET 0 -0.477856 0
			CHANNELS 1 Xrotation
			JOINT Right_Foot
			{
				OFFSET 0 -0.431952 0
				CHANNELS 2 Xrotation Zrotation
				JOINT Right_Toe
				{
					OFFSET 0 -0.0442 0.119
					CHANNELS 1 Xrotation
					End Site
					{
						OFFSET -0 -0 0.07
					}
				}
			}
		}
	}
}
MOTION
Frames: 13
Frame Time: 0.009975
-0.0975218 -0.0601042 0.0394132 1.70965e-010 9.6034e-010 -5.10995e-006 0 -0 0 0 -0 0 0 -0 0 -0.712102 0.279704 3.7333e-011 0.317304 -35.4852 0.0178946 -23.34 -29.7026 -93.4865 -0.655177 1.63568 8.32571 -40.5316 -43.5896 103.283 -7.10789 -4.81548 2.69559 -7.40342 -2.98992 -6.72733 5.89092 0.508958 -5.4973 -5.3917 11.1257 1.19015 -12.1062 -9.35422 19.4153 3.33565 -41.2194 -1.46018 9.61204 23.3817 -9.85537 20.8091 32.4124 48.8542 13.2013 0.521035 -5.93569 53.3899 37.8118 89.9016 9.03797 4.85401 1.89507 7.05996 4.41749 5.75077 -8.18978 2.23629 5.73763 8.13 -17.8579 2.68637 9.02085 5.2873 -28.8779 0.465492 39.3654 -21.4198 0.0146207 -0.89921 -0.000229972 0.0240216 -0.0386405 0.899215 0 0.0260269 -0.89921 -0.000408973 1.70755e-006 -0.0260254 0.899215 0 
-0.0974105 -0.0601063 0.0398948 3.58716e-012 5.02643e-009 -5.10996e-006 0 -0 0 0 -0 0 0 -0 0 -0.712144 0.279339 2.86924e-011 0.317304 -35.4852 0.0178946 -23.34 -29.7026 -93.4865 -0.655177 1.63568 8.32571 -40.5316 -43.5896 103.283 -7.10789 -4.81548 2.69559 -7.40342 -2.98992 -6.72733 5.89092 0.508958 -5.4973 -5.3917 11.1257 1.19015 -12.1062 -9.35422 19.4153 3.33565 -41.2194 -1.46018 9.28672 22.7125 -8.18751 19.1731 33.0269 52.165 12.7545 0.5034 -5.7348 52.9432 37.5284 89.4332 9.53531 5.53611 2.21953 7.38252 5.12891 6.1522 -7.953 2.82027 6.51467 8.70806 -17.5912 3.49642 9.69114 5.82146 -28.2694 1.22498 39.2436 -19.9326 0.0449529 -0.906222 -0.000711389 0.0240216 -0.0689689 0.906228 0 0.0563591 -0.906222 -0.000891788 8.62311e-007 -0.056353 0.906227 0 
-0.0973202 -0.0601083 0.0403686 -5.39744e-012 7.68791e-009 -5.10997e-006 0 -0 0 0 -0 0 0 -0 0 -0.712184 0.27905 2.24425e-011 0.317304 -35.4852 0.0178946 -23.34 -29.7026 -93.4865 -0.655177 1.63568 8.32571 -40.5316 -43.5896 103.283 -7.10789 -4.81548 2.69559 -7.40342 -2.98992 -6.72733 5.89092 0.508958 -5.4973 -5.3917 11.1257 1.19015 -12.1062 -9.35422 19.4153 3.33565 -41.2194 -1.46018 8.96072 22.044 -6.5489 17.7098 33.73 55.1852 12.3068 0.485729 -5.53349 52.4965 37.2449 88.9647 10.0327 6.21821 2.544 7.70507 5.84033 6.55363 -7.71623 3.40426 7.29171 9.28613 -17.3245 4.30646 10.3614 6.35562 -27.661 1.98447 39.1218 -18.4455 0.0747948 -0.911905 -0.0011907 0.0240216 -0.098807 0.911911 0 0.0862011 -0.911905 -0.00137224 0 -0.0861902 0.911911 0 
-0.0972473 -0.0601103 0.0408357 -5.15772e-012 9.03158e-009 -5.10997e-006 0 -0 0 0 -0 0 0 -0 0 -0.712223 0.278818 1.75765e-011 0.317304 -35.4852 0.0178946 -23.34 -29.7026 -93.4865 -0.655177 1.63568 8.32571 -40.5316 -43.5896 103.283 -7.10789 -4.81548 2.69559 -7.40342 -2.98992 -6.72733 5.89092 0.508958 -5.4973 -5.3917 11.1257 1.19015 -12.1062 -9.35422 19.4153 3.33565 -41.2194 -1.46018 8.63445 21.3765 -4.93072 16.3984 34.5051 57.9573 11.8587 0.468043 -5.332 52.0498 36.9615 88.4963 10.53 6.90031 2.86846 8.02762 6.55175 6.95506 -7.47945 3.98824 8.06875 9.86419 -17.0577 5.11651 11.0317 6.88979 -27.0525 2.74396 39 -16.9583 0.104211 -0.916501 -0.00166716 0.0240216 -0.128219 0.916508 0 0.115616 -0.916501 -0.00184959 1.38751e-006 -0.115603 0.916508 0 
-0.097189 -0.0601123 0.0412967 1.05392e-012 1.16435e-008 -5.10997e-006 0 -0 0 0 -0 0 0 -0 0 -0.712262 0.278635 1.36026e-011 0.317304 -35.4852 0.0178946 -23.34 -29.7026 -93.4865 -0.655177 1.63568 8.32571 -40.5316 -43.5896 103.283 -7.10789 -4.81548 2.69559 -7.40342 -2.98992 -6.72733 5.89092 0.508958 -5.4973 -5.3917 11.1257 1.19015 -12.1062 -9.35422 19.4153 3.33565 -41.2194 -1.46018 8.30821 20.7103 -3.32756 15.2234 35.3407 60.5123 11.4106 0.450359 -5.13055 51.6031 36.678 88.0278 11.0273 7.58241 3.19293 8.35017 7.26318 7.3565 -7.24268 4.57223 8.84579 10.4422 -16.791 5.92656 11.702 7.42395 -26.444 3.50344 38.8782 -15.4712 0.133247 -0.920171 -0.00214008 0.0240216 -0.157251 0.920178 0 0.144652 -0.92017 -0.00232324 2.83165e-006 -0.144636 0.920178 0 
-0.0971437 -0.0601143 0.0417521 -1.42419e-012 1.4223e-008 -5.10997e-006 0 -0 0 0 -0 0 0 -0 0 -0.712301 0.278493 1.02276e-011 0.317304 -35.4852 0.0178946 -23.34 -29.7026 -93.4865 -0.655177 1.63568 8.32571 -40.5316 -43.5896 103.283 -7.10789 -4.81548 2.69559 -7.40342 -2.98992 -6.72733 5.89092 0.508958 -5.4973 -5.3917 11.1257 1.19015 -12.1062 -9.35422 19.4153 3.33565 -41.2194 -1.46018 7.98229 20.0458 -1.73635 14.1734 36.2282 62.8733 10.963 0.432692 -4.92928 51.1564 36.3946 87.5594 11.5247 8.26452 3.51739 8.67273 7.9746 7.75793 -7.0059 5.15621 9.62283 11.0203 -16.5242 6.73661 12.3723 7.95811 -25.8355 4.26293 38.7564 -13.984 0.161933 -0.923027 -0.00260879 0.0240216 -0.185934 0.923036 0 0.17334 -0.923027 -0.00279253 1.24364e-006 -0.173318 0.923036 0 
-0.0971099 -0.0601163 0.0422024 -2.94437e-012 1.67724e-008 -5.10996e-006 0 -0 0 0 -0 0 0 -0 0 -0.712339 0.278388 7.26915e-012 0.317304 -35.4852 0.0178946 -23.34 -29.7026 -93.4865 -0.655177 1.63568 8.32571 -40.5316 -43.5896 103.283 -7.10789 -4.81548 2.69559 -7.40342 -2.98992 -6.72733 5.89092 0.508958 -5.4973 -5.3917 11.1257 1.19015 -12.1062 -9.35422 19.4153 3.33565 -41.2194 -1.46018 7.65691 19.3831 -0.155741 13.2391 37.161 65.0584 10.5161 0.415054 -4.72835 50.7096 36.1111 87.0909 12.022 8.94662 3.84186 8.99528 8.68602 8.15936 -6.76913 5.7402 10.3999 11.5984 -16.2575 7.54665 13.0426 8.49227 -25.227 5.02242 38.6346 -12.4969 0.190291 -0.925155 -0.00307264 0.0240216 -0.214288 0.925165 0 0.201697 -0.925155 -0.00325679 1.36627e-006 -0.201672 0.925165 0 
-0.0970866 -0.0601183 0.0426476 2.66969e-012 1.9293e-008 -5.10995e-006 0 -0 0 0 -0 0 0 -0 0 -0.712377 0.278316 4.64423e-012 0.317304 -35.4852 0.0178946 -23.34 -29.7026 -93.4865 -0.655177 1.63568 8.32571 -40.5316 -43.5896 103.283 -7.10789 -4.81548 2.69559 -7.40342 -2.98992 -6.72733 5.89092 0.508958 -5.4973 -5.3917 11.1257 1.19015 -12.1062 -9.35422 19.4153 3.33565 -41.2194 -1.46018 7.33228 18.7226 1.41442 12.4128 38.1336 67.082 10.0703 0.397457 -4.52788 50.2629 35.8277 86.6224 12.5194 9.62872 4.16632 9.31783 9.39744 8.56079 -6.53236 6.32419 11.1769 12.1764 -15.9908 8.3567 13.7128 9.02644 -24.6185 5.78191 38.5128 -11.0097 0.218334 -0.92662 -0.00353098 0.0240216 -0.242327 0.926632 0 0.229739 -0.926619 -0.00371542 2.83165e-006 -0.229712 0.926632 0 
-0.0970731 -0.0601204 0.043088 -2.23036e-012 2.17859e-008 -5.10995e-006 0 -0 0 0 -0 0 0 -0 0 -0.712414 0.278273 2.2579e-012 0.317304 -35.4852 0.0178946 -23.34 -29.7026 -93.4865 -0.655177 1.63568 8.32571 -40.5316 -43.5896 103.283 -7.10789 -4.81548 2.69559 -7.40342 -2.98992 -6.72733 5.89092 0.508958 -5.4973 -5.3917 11.1257 1.19015 -12.1062 -9.35422 19.4153 3.33565 -41.2194 -1.46018 7.00861 18.0647 2.97329 11.6882 39.1415 68.9555 9.62574 0.379912 -4.328 49.8162 35.5442 86.154 13.0167 10.3108 4.49079 9.64038 10.1089 8.96222 -6.29558 6.90817 11.954 12.7545 -15.724 9.16675 14.3831 9.5606 -24.01 6.5414 38.391 -9.52255 0.24607 -0.927472 -0.00398314 0.0240216 -0.270059 0.927485 0 0.257476 -0.927471 -0.00416777 1.26175e-006 -0.257444 0.927485 0 
-0.0970687 -0.0601226 0.0435235 2.42546e-012 2.42515e-008 -5.10994e-006 0 -0 0 0 -0 0 0 -0 0 -0.712452 0.278258 6.57086e-014 0.317304 -35.4852 0.0178946 -23.34 -29.7026 -93.4865 -0.655177 1.63568 8.32571 -40.5316 -43.5896 103.283 -7.10789 -4.81548 2.69559 -7.40342 -2.98992 -6.72733 5.89092 0.508958 -5.4973 -5.3917 11.1257 1.19015 -12.1062 -9.35422 19.4153 3.33565 -41.2194 -1.46018 6.68607 17.4095 4.51935 11.0593 40.1808 70.6881 9.18276 0.362428 -4.12883 49.3695 35.2608 85.6855 13.514 10.9929 4.81525 9.96294 10.8203 9.36365 -6.05881 7.49216 12.731 13.3326 -15.4573 9.97679 15.0534 10.0948 -23.4015 7.30088 38.2692 -8.0354 0.273502 -0.927751 -0.00442848 0.0240216 -0.297487 0.927766 0 0.284908 -0.92775 -0.00461317 8.11085e-007 -0.284871 0.927766 0 
-0.0970728 -0.0601247 0.0439542 -1.06256e-012 2.66899e-008 -5.10992e-006 0 -0 0 0 -0 0 0 -0 0 -0.712489 0.278269 -1.9618e-012 0.317304 -35.4852 0.0178946 -23.34 -29.7026 -93.4865 -0.655177 1.63568 8.32571 -40.5316 -43.5896 103.283 -7.10789 -4.81548 2.69559 -7.40342 -2.98992 -6.72733 5.89092 0.508958 -5.4973 -5.3917 11.1257 1.19015 -12.1062 -9.35422 19.4153 3.33565 -41.2194 -1.46018 6.36485 16.7575 6.05048 10.5209 41.2481 72.2878 8.74159 0.345016 -3.93047 48.9228 34.9773 85.2171 14.0114 11.675 5.13972 10.2855 11.5317 9.76509 -5.82203 8.07614 13.508 13.9106 -15.1906 10.7868 15.7237 10.6289 -22.793 8.06037 38.1474 -6.54824 0.30063 -0.927491 -0.00486635 0.0240216 -0.324612 0.927509 0 0.312036 -0.92749 -0.00505099 1.70755e-006 -0.311997 0.927509 0 
-0.097085 -0.0601269 0.04438 -1.03859e-012 2.9101e-008 -5.10991e-006 0 -0 0 0 -0 0 0 -0 0 -0.712526 0.278305 -3.85385e-012 0.317304 -35.4852 0.0178946 -23.34 -29.7026 -93.4865 -0.655177 1.63568 8.32571 -40.5316 -43.5896 103.283 -7.10789 -4.81548 2.69559 -7.40342 -2.98992 -6.72733 5.89092 0.508958 -5.4973 -5.3917 11.1257 1.19015 -12.1062 -9.35422 19.4153 3.33565 -41.2194 -1.46018 6.04512 16.1089 7.56416 10.0679 42.3402 73.761 8.30247 0.327685 -3.73303 48.4761 34.6939 84.7486 14.5087 12.3571 5.46419 10.608 12.2431 10.1665 -5.58526 8.66013 14.2851 14.4887 -14.9238 11.5969 16.394 11.1631 -22.1845 8.81986 38.0256 -5.06109 0.327451 -0.926722 -0.0052961 0.0240216 -0.35143 0.926742 0 0.338857 -0.926721 -0.00548059 2.41484e-006 -0.338815 0.926742 0 
-0.097105 -0.0601292 0.0448009 -1.11559e-012 3.14844e-008 -5.10989e-006 0 -0 0 0 -0 0 0 -0 0 -0.712562 0.278363 -5.62671e-012 0.317304 -35.4852 0.0178946 -23.34 -29.7026 -93.4865 -0.655177 1.63568 8.32571 -40.5316 -43.5896 103.283 -7.10789 -4.81548 2.69559 -7.40342 -2.98992 -6.72733 5.89092 0.508958 -5.4973 -5.3917 11.1257 1.19015 -12.1062 -9.35422 19.4153 3.33565 -41.2194 -1.46018 5.72708 15.4641 9.0575 9.69555 43.4542 75.1134 7.86566 0.310445 -3.53663 48.0294 34.4104 84.2801 15.0061 13.0392 5.78865 10.9306 12.9545 10.568 -5.34849 9.24411 15.0621 15.0667 -14.6571 12.4069 17.0643 11.6972 -21.5761 9.57935 37.9038 -3.57394 0.353961 -0.925466 -0.00571709 0.0240216 -0.377936 0.925488 0 0.365367 -0.925464 -0.00590132 2.41484e-006 -0.365321 0.925488 0 
